<svg xmlns="http://www.w3.org/2000/svg"
     width="512" height="512"
     viewBox="100 0 7200 7200"
     preserveAspectRatio="xMidYMid meet"
     style="background: transparent;">
  <!-- Squircle extérieur en blanc - version corrigée -->
  <path
    d="M3600 7000 
       c-800 0 -1600 0 -2400 0 
       c-600 0 -1000 -400 -1000 -1000 
       c0 -1600 0 -3200 0 -4800 
       c0 -600 400 -1000 1000 -1000 
       c1600 0 3200 0 4800 0 
       c600 0 1000 400 1000 1000 
       c0 1600 0 3200 0 4800 
       c0 600 -400 1000 -1000 1000 
       c-800 0 -1600 0 -2400 0z"
    fill="#1a1a1a"/>
  <!-- Motif intérieur en vert -->
  <path
    d="M4395 6205 c461 -70 810 -239 1112 -536 225 -222 366 -442 463 -724 77 -224 111 -458 91 -620 -24 -196 -84 -357 -197 -528 -58 -87 -126 -160 -459 -497 -431 -435 -434 -438 -460 -586 -8 -44 -14 -132 -15 -196 0 -178 33 -253 133 -305 44 -23 65 -27 137 -28 109 0 169 27 217 98 47 70 55 126 47 322 -9 229 0 264 101 378 40 45 144 152 231 238 167 164 202 187 269 176 46 -8 108 -51 142 -99 l28 -41 3 -396 c2 -227 -1 -437 -7 -491 -45 -417 -295 -730 -681 -854 -432 -139 -885 -6 -1161 342 -103 129 -173 304 -199 498 -18 133 -8 442 18 559 36 157 77 253 160 370 20 28 210 226 422 440 403 406 436 445 493 587 18 45 21 73 21 188 0 126 -2 141 -32 227 -37 108 -87 212 -148 304 -47 70 -200 225 -274 276 -118 80 -311 158 -470 189 -111 21 -785 32 -969 15 -366 -34 -671 -164 -938 -403 -274 -245 -463 -605 -502 -959 -6 -57 -11 -445 -12 -984 -1 -999 -5 -941 71 -984 37 -20 49 -21 429 -21 312 0 398 3 425 14 32 13 74 59 92 101 4 11 11 234 15 495 6 430 8 484 27 569 65 290 171 505 362 733 43 51 237 251 432 444 330 328 358 354 430 389 104 51 175 53 268 9 146 -69 245 -204 245 -334 0 -54 -6 -78 -34 -135 -31 -63 -71 -107 -426 -465 -412 -415 -457 -469 -516 -612 -64 -153 -62 -132 -69 -858 -6 -652 -6 -666 -28 -724 -30 -80 -53 -114 -115 -173 -59 -56 -123 -92 -212 -120 -56 -17 -112 -18 -860 -18 l-800 0 -82 24 c-140 40 -253 121 -308 223 -62 114 -59 57 -63 1178 -3 1035 0 1172 34 1369 20 119 77 339 115 441 17 47 36 99 42 115 22 62 128 263 185 350 87 134 205 276 338 406 337 328 724 524 1194 605 229 39 300 42 730 39 318 -2 429 -6 515 -20z"
    fill="#358b54"/>
</svg>
