<?xml version="1.0" encoding="UTF-8"?>
<svg version="1.1" viewBox="0 0 2048 2048" width="4096" height="4096" xmlns="http://www.w3.org/2000/svg">
<path transform="translate(0)" d="m0 0h2048v2048h-2048z" fill="#1F2020"/>
<path transform="translate(577,570)" d="m0 0h188l11 4 6 5 4 9 1 5 1 517 2 22 5 23 8 23 12 25 12 19 10 13 10 11 7 8 14 12 16 12 18 11 15 8 25 10 24 7 21 4 18 2h39l27-4 25-6 25-9 23-11 18-11 16-12 13-11 16-16 11-14 10-15 10-18 8-17 8-24 5-24 1-9v-296l-2-9-4-6-1-1-9-1-145-1-6-3-5-6-2-6v-205l3-8 6-5 8-2h127l17 2 16 5 16 8 11 9 81 81 7 8 47 47 7 8 32 32 9 13 8 17 3 12 1 9 1 28v274l-3 30-5 29-6 25-8 27-12 32-13 28-13 24-13 21-14 20-10 13-11 13-9 10-9 9-7 8-8 7-7 7-11 9-15 12-20 14-28 17-31 16-29 12-36 12-22 6-31 6-29 4-32 2h-55l-30-2-30-4-31-6-31-8-32-11-26-11-30-15-17-10-24-16-16-12-16-13-13-12-8-7-12-12-9-11-10-11-13-17-12-17-12-19-10-18-10-19-13-30-10-28-8-29-6-27-4-24-2-19-1-41v-501l3-8 5-5z" fill="#0080E0"/>
<path transform="translate(1103,570)" d="m0 0h127l17 2 16 5 16 8 11 9 81 81 7 8 47 47 7 8 32 32 9 13 8 17 3 12 1 9v24l-2-1-5-14-7-9-8-6-11-5-11-3-9-1-333-1-6-3-5-6-2-6v-205l3-8 6-5z" fill="#E1E0E0"/>
</svg>
